<?xml version="1.0" encoding="utf-8"?>
<!-- Generator: Adobe Illustrator 26.3.1, SVG Export Plug-In . SVG Version: 6.00 Build 0)  -->
<svg version="1.1" id="Layer_1" xmlns="http://www.w3.org/2000/svg" xmlns:xlink="http://www.w3.org/1999/xlink" x="0px" y="0px"
	 viewBox="0 0 758.7 677.7" style="enable-background:new 0 0 758.7 677.7;" xml:space="preserve">
<style type="text/css">
	.st0{fill:none;stroke:#000000;stroke-width:50;stroke-miterlimit:10;}
</style>
<g>
	<path class="st0" d="M385,496.1c79.5,0,144-64.5,144-144s-64.5-144-144-144s-144,64.5-144,144S305.5,496.1,385,496.1z"/>
	<path class="st0" d="M27.4,482.3V235.7c0-36.3,0-54.5,8.5-68.4c7.5-12.2,19.4-22.1,34.1-28.4c16.7-7.1,38.5-7.1,82.2-7.1h41.1
		c4.8,0,7.2,0,9.4-0.2c11.5-1.1,21.9-6.4,28.2-14.5c1.2-1.6,2.3-3.3,4.4-6.9c4.3-7.1,6.4-10.7,8.9-13.8c12.7-16.2,33.4-26.8,56.5-29
		c4.4-0.4,9.2-0.4,18.8-0.4h117.8c9.6,0,14.4,0,18.8,0.4c23.1,2.2,43.8,12.8,56.5,29c2.4,3.1,4.6,6.7,8.9,13.8
		c2.1,3.6,3.2,5.4,4.4,6.9c6.4,8.1,16.7,13.4,28.2,14.5c2.2,0.2,4.6,0.2,9.4,0.2h41.1c43.7,0,65.6,0,82.2,7.1
		c14.7,6.2,26.6,16.2,34.1,28.4c8.5,13.9,8.5,32.1,8.5,68.4v246.6c0,36.3,0,54.5-8.5,68.4c-7.5,12.2-19.4,22.1-34.1,28.4
		c-16.7,7.1-38.5,7.1-82.2,7.1H152.2c-43.7,0-65.5,0-82.2-7.1c-14.7-6.2-26.6-16.2-34.1-28.4C27.4,536.8,27.4,518.6,27.4,482.3
		L27.4,482.3z"/>
	<circle cx="134.3" cy="242.5" r="40.4"/>
</g>
</svg>
