<?xml version="1.0" encoding="utf-8"?>
<!-- Generator: Adobe Illustrator 26.3.1, SVG Export Plug-In . SVG Version: 6.00 Build 0)  -->
<svg version="1.1" id="Layer_1" xmlns="http://www.w3.org/2000/svg" xmlns:xlink="http://www.w3.org/1999/xlink" x="0px" y="0px"
	 viewBox="0 0 800 800" style="enable-background:new 0 0 800 800;" xml:space="preserve">
<style type="text/css">
	.st0{fill:none;stroke:#000000;stroke-width:66.6667;stroke-linecap:round;stroke-linejoin:round;stroke-miterlimit:133.3333;}
</style>
<path class="st0" d="M599.7,588.6h0.4 M615.7,468.7h24c37.2,0,55.8,0,70.5,6.1c19.6,8.1,35.1,23.7,43.2,43.2
	c6.1,14.7,6.1,33.3,6.1,70.5c0,37.2,0,55.8-6.1,70.5c-8.1,19.6-23.7,35.1-43.2,43.2c-14.7,6.1-33.3,6.1-70.5,6.1H160.3
	c-37.2,0-55.8,0-70.5-6.1c-19.6-8.1-35.1-23.7-43.2-43.2c-6.1-14.7-6.1-33.3-6.1-70.5c0-37.2,0-55.8,6.1-70.5
	c8.1-19.6,23.7-35.1,43.2-43.2c14.7-6.1,33.3-6.1,70.5-6.1h24 M400,508.7V69.3 M400,508.7L280.2,388.9 M400,508.7l119.8-119.8"/>
</svg>
