<?xml version="1.0" encoding="utf-8"?>
<!-- Generator: Adobe Illustrator 26.3.1, SVG Export Plug-In . SVG Version: 6.00 Build 0)  -->
<svg version="1.1" id="Layer_1" xmlns="http://www.w3.org/2000/svg" xmlns:xlink="http://www.w3.org/1999/xlink" x="0px" y="0px"
	 viewBox="0 0 800 800" style="enable-background:new 0 0 800 800;" xml:space="preserve">
<style type="text/css">
	.st0{fill:none;stroke:#000000;stroke-width:66.6667;stroke-linecap:round;stroke-linejoin:round;stroke-miterlimit:133.3333;}
</style>
<path class="st0" d="M603.2,644.3h0.4 M619.5,522.2H644c37.9,0,56.8,0,71.8,6.2c20,8.3,35.8,24.1,44,44c6.2,15,6.2,33.9,6.2,71.8
	s0,56.8-6.2,71.8c-8.3,20-24.1,35.8-44,44c-15,6.2-33.9,6.2-71.8,6.2H155.6c-37.9,0-56.9,0-71.8-6.2c-20-8.3-35.8-24.1-44-44
	c-6.2-15-6.2-33.9-6.2-71.8s0-56.9,6.2-71.8c8.3-20,24.1-35.8,44-44c15-6.2,33.9-6.2,71.8-6.2H180 M399.8,562.9V115.3 M399.8,562.9
	L277.7,440.9 M399.8,562.9l122.1-122.1"/>
</svg>
