<?xml version="1.0" encoding="UTF-8"?><svg id="Layer_1" xmlns="http://www.w3.org/2000/svg" viewBox="0 0 785.67 705.67"><defs><style>.cls-1{fill:#fff;stroke:#9f9f9f;stroke-linecap:round;stroke-linejoin:round;stroke-width:66.67px;}</style></defs><path class="cls-1" d="M592.53,552.63h.4m15.6-119.9h24c37.2,0,55.8,0,70.5,6.1,19.6,8.1,35.1,23.7,43.2,43.2,6.1,14.7,6.1,33.3,6.1,70.5s0,55.8-6.1,70.5c-8.1,19.6-23.7,35.1-43.2,43.2-14.7,6.1-33.3,6.1-70.5,6.1H153.13c-37.2,0-55.8,0-70.5-6.1-19.6-8.1-35.1-23.7-43.2-43.2-6.1-14.7-6.1-33.3-6.1-70.5s0-55.8,6.1-70.5c8.1-19.6,23.7-35.1,43.2-43.2,14.7-6.1,33.3-6.1,70.5-6.1h24m215.7,40V33.33m0,439.4l-119.8-119.8m119.8,119.8l119.8-119.8"/></svg>