<?xml version="1.0" encoding="utf-8"?>
<!-- Generator: Adobe Illustrator 26.3.1, SVG Export Plug-In . SVG Version: 6.00 Build 0)  -->
<svg version="1.1" id="_x32_" xmlns="http://www.w3.org/2000/svg" xmlns:xlink="http://www.w3.org/1999/xlink" x="0px" y="0px"
	 viewBox="0 0 800 800" style="enable-background:new 0 0 800 800;" xml:space="preserve">
<style type="text/css">
	.st0{fill:none;stroke:#000000;stroke-width:50;stroke-miterlimit:10;}
</style>
<g>
	<path d="M484.5,583.2c-16.2,18-25.5,28.6-42.9,45.3c-26.4,25.3-56.4,32-79.8,7.1c-33.5-35.9,1.6-145,2.5-149.1
		c6.3-29,18.9-87,18.9-87S356,416.1,339.9,422c-11.9,4.3-25.4-1.4-28.7-12.9c-3.1-10.7-0.6-17.4,5.9-24.7
		c16.2-17.9,25.5-28.6,42.9-45.3c26.5-25.3,56.4-32,79.8-7.1c33.5,35.9,8.8,94.9,0.1,136.7c-0.9,4.1-21.5,99.4-21.5,99.4
		s27.2-16.6,43.3-22.5c11.9-4.3,25.4,1.4,28.7,12.9C493.6,569.2,491.1,576,484.5,583.2z M423.6,273.8c-31.2,2.7-58.7-20.3-61.5-51.6
		c-2.7-31.2,20.4-58.7,51.6-61.4c31.2-2.7,58.7,20.4,61.5,51.6C477.9,243.6,454.8,271.1,423.6,273.8z"/>
	<circle class="st0" cx="403.8" cy="400" r="364"/>
</g>
</svg>
