<?xml version="1.0" encoding="utf-8"?>
<!-- Generator: Adobe Illustrator 26.3.1, SVG Export Plug-In . SVG Version: 6.00 Build 0)  -->
<svg version="1.1" id="Layer_1" xmlns="http://www.w3.org/2000/svg" xmlns:xlink="http://www.w3.org/1999/xlink" x="0px" y="0px"
	 width="91.9px" height="66.3px" viewBox="0 0 91.9 66.3" enable-background="new 0 0 91.9 66.3" xml:space="preserve">
<path d="M46.1,1.6c-25.2,0-45,10.8-45,24.6c0,13.4,18.7,23.9,42.9,24.5l-8.8,8.7l5.8,5.8l18.6-18.6L41,28l-5.8,5.8l8.6,8.6
	C23.3,41.8,9.2,33.6,9.2,26.1C9.2,18.4,24.3,9.7,46,9.7s36.8,8.6,36.8,16.4c0,4.3-4.7,8.9-12.5,12.1v8.7
	C82.9,42.6,91.1,35,91.1,26.2C91.1,12.4,71.3,1.6,46.1,1.6z"/>
</svg>
