<?xml version="1.0" encoding="utf-8"?>
<!-- Generator: Adobe Illustrator 26.3.1, SVG Export Plug-In . SVG Version: 6.00 Build 0)  -->
<svg version="1.1" id="Layer_1" xmlns="http://www.w3.org/2000/svg" xmlns:xlink="http://www.w3.org/1999/xlink" x="0px" y="0px"
	 viewBox="0 0 147 67.3" style="enable-background:new 0 0 147 67.3;" xml:space="preserve">
<style type="text/css">
	.st0{fill:#4359A5;}
	.st1{fill:#4560AA;}
</style>
<g>
	<g>
		<path class="st0" d="M14.3,14.4c0,0,0,4.5,0,18.7c0,14.5,14.2,19.8,14.2,19.8s14.2-5.3,14.2-19.8c0-14.2,0-18.7,0-18.7
			S14.3,14.4,14.3,14.4z M36.5,21.8c0.4-0.6,1.1-1.2,1.8-1.1c0.2,0,0.4,0.1,0.6,0.3c-0.1-0.3,0-0.6,0.1-0.8c0,0,0.4-0.8,1.7-0.9
			c0,0,0,0,0,0c0,0,0,0,0,0.1L38,24.2c0,0,0,0-0.1,0l0,0c-0.3-0.2-0.5-0.7-0.2-1c0.1-0.1,0.2-0.2,0.2-0.3
			C37.7,22.9,37,22.7,36.5,21.8C36.5,21.8,36.5,21.8,36.5,21.8z M37.5,25l-1,1.7c-2.5-1.4-5.2-2.2-8.1-2.2c-2.8,0-5.6,0.8-8.1,2.2
			l-1-1.7c2.8-1.6,5.9-2.4,9.1-2.4S34.8,23.4,37.5,25z M31.9,19.7l0.2-0.7c0-0.1,0.2-0.2,0.3-0.2l1.1,0.3l0.3-1.1
			c0-0.1,0.2-0.2,0.3-0.2l0.7,0.2c0.2,0,0.2,0.2,0.2,0.3l-0.3,1.1l1.1,0.3c0.2,0,0.2,0.2,0.2,0.3l-0.2,0.7c0,0.1-0.2,0.2-0.3,0.2
			l-1.1-0.3l-0.4,1.5c0,0.1-0.2,0.2-0.3,0.2l-0.7-0.2c-0.2,0-0.2-0.2-0.2-0.3l0.4-1.5l-1.1-0.3C32,20.1,31.9,19.9,31.9,19.7z
			 M27,18.5c0.2-0.1,0.4-0.1,0.6,0l0,0l0,0c-0.2-0.2-0.3-0.5-0.3-0.8c0,0,0-0.9,1.1-1.6c0,0,0,0,0.1,0c1.1,0.7,1.1,1.6,1.1,1.6
			c0,0.3-0.1,0.5-0.3,0.8c0.2,0,0.4,0,0.6,0c0.7,0.3,1,1.1,1,1.8c0,0,0,0,0,0.1c-0.9,0.5-1.5,0.3-1.8,0.2c0.1,0.1,0.1,0.2,0.1,0.4
			c0,0.4-0.4,0.8-0.8,0.8c-0.4,0-0.8-0.4-0.8-0.8c0-0.1,0-0.2,0.1-0.4c-0.3,0.1-0.9,0.3-1.8-0.2c0,0,0,0,0-0.1
			C26,19.6,26.3,18.7,27,18.5z M21,19.8l1.1-0.3l-0.3-1.1c0-0.1,0-0.3,0.2-0.3l0.7-0.2c0.1,0,0.3,0,0.3,0.2l0.3,1.1l1.1-0.3
			c0.1,0,0.3,0,0.3,0.2l0.2,0.7c0,0.1,0,0.3-0.2,0.3l-1.1,0.3l0.4,1.5c0,0.1,0,0.3-0.2,0.3l-0.7,0.2c-0.2,0-0.3,0-0.3-0.2l-0.4-1.5
			L21.3,21c-0.1,0-0.3,0-0.3-0.2l-0.2-0.7C20.8,20,20.8,19.8,21,19.8z M16.1,19.3C16.1,19.3,16.2,19.3,16.1,19.3
			c1.3,0,1.7,0.9,1.7,0.9C18,20.4,18,20.7,18,21c0.2-0.1,0.4-0.3,0.6-0.3c0.8-0.1,1.4,0.4,1.8,1.1c0,0,0,0,0,0.1
			c-0.5,0.8-1.1,1-1.4,1.1c0.1,0.1,0.2,0.2,0.2,0.3c0.2,0.4,0.1,0.8-0.2,1l0,0c0,0,0,0-0.1,0L16.1,19.3
			C16.1,19.4,16.1,19.4,16.1,19.3z M37.2,45.7c-0.7,0.8-1.4,1.5-2.1,2.2c-2.9,2.6-5.8,3.9-6.7,4.3c-0.9-0.4-3.7-1.7-6.6-4.2
			c-0.8-0.7-1.5-1.4-2.2-2.2l8.8-6.8L15,28.6l0,0h26.9L28.4,39L37.2,45.7z"/>
		<g>
			<path class="st0" d="M128.7,41.1c1.2,0,1.9,0.8,2,2h-4.2C126.7,41.8,127.5,41.1,128.7,41.1 M128.7,39.4c-2.5,0-4.2,1.9-4.2,4.6
				c0,2.8,1.8,4.6,4.3,4.6c1.8,0,3.2-1,3.6-2.3l-1.5-0.8c-0.4,1-1.2,1.5-2.1,1.5c-1.3,0-2.2-0.9-2.4-2.7h6.2v-0.5
				C132.6,41.4,131.2,39.4,128.7,39.4 M119.3,41.1c1.2,0,1.9,0.8,2,2h-4.2C117.4,41.8,118.2,41.1,119.3,41.1 M119.4,39.4
				c-2.5,0-4.2,1.9-4.2,4.6c0,2.8,1.8,4.6,4.3,4.6c1.8,0,3.2-1,3.6-2.3l-1.5-0.8c-0.4,1-1.2,1.5-2.1,1.5c-1.3,0-2.2-0.9-2.4-2.7h6.2
				v-0.5C123.3,41.4,121.9,39.4,119.4,39.4 M109.3,47c-1.4,0-2.3-1-2.3-2.9s0.9-2.9,2.3-2.9c1.3,0,2.3,0.8,2.5,2.5v0.9
				C111.6,46.2,110.6,47,109.3,47 M111.7,36.4v4.3h-0.1c-0.5-0.7-1.3-1.3-2.7-1.3c-2.1,0-3.9,1.7-3.9,4.6c0,2.8,1.8,4.6,3.9,4.6
				c1.3,0,2.2-0.5,2.7-1.3h0.1v1.1h1.9V36.1L111.7,36.4z M100.4,39.4c-1.2,0-2.1,0.6-2.6,1.3h-0.2l-0.1-1.1h-1.8v8.8h1.9v-4.5
				c0-1,0.2-1.6,0.5-2c0.4-0.5,1-0.8,1.7-0.8c1.1,0,1.7,0.6,1.7,2.1v5.2h1.9v-5.8C103.5,40.2,102.1,39.4,100.4,39.4 M91.9,39.7v4.5
				c0,1-0.2,1.6-0.5,2c-0.4,0.5-1,0.8-1.7,0.8c-1.1,0-1.7-0.6-1.7-2.1v-5.2h-1.9v5.8c0,2.4,1.5,3.2,3.1,3.2c1.2,0,2.1-0.6,2.6-1.3
				h0.2l0.1,1.1h1.8v-8.8C93.8,39.7,91.9,39.7,91.9,39.7z M76.6,38.7h1.6c3.1,0,4.2,1.4,4.2,4c0,2.7-1.1,4.1-4.2,4.1h-1.6V38.7z
				 M78.2,37h-3.6v11.5h3.6c4.3,0,6.2-2.2,6.2-5.8C84.4,39.2,82.5,37,78.2,37 M69.5,38.3c0.4,0,0.8,0.1,1.1,0.2v-1.6
				c-0.3-0.1-0.7-0.1-1.2-0.1c-1.4,0-3.1,0.7-3.1,3.2v0.3h-1.3v1.5h1.3v6.8H68v-6.8h2.2v-1.5H68V40C68,38.9,68.5,38.3,69.5,38.3
				 M62.2,44.3c0,1.8-0.8,2.8-2.3,2.8c-1.4,0-2.3-1-2.3-2.8s0.9-2.8,2.3-2.8C61.4,41.5,62.2,42.5,62.2,44.3 M64,44.3
				c0-2.7-1.6-4.3-4.1-4.3c-2.4,0-4.1,1.7-4.1,4.3s1.7,4.3,4.1,4.3C62.4,48.6,64,46.9,64,44.3"/>
			<path class="st0" d="M132.7,22.5h-2l-2.3,6.8l-2.3-6.8H124l3.3,8.8l-1.2,3.3h2l3.9-10.3l0,0L132.7,22.5z M121.2,27.9V24h2.1v-1.5
				h-2.2v-2.4l-1.9,0.2v2.2h-1.1V24h1.1v4c0,2.6,1.7,3.3,3.2,3.3c0.5,0,0.9,0,1.3-0.1v-1.7c-0.3,0.1-0.7,0.2-1.1,0.2
				C121.7,29.7,121.2,29.1,121.2,27.9 M116.6,22.5h-1.9v8.8h1.9V22.5z M116.9,19.8c0-0.7-0.5-1.2-1.2-1.2c-0.7,0-1.2,0.5-1.2,1.2
				c0,0.7,0.5,1.2,1.2,1.2C116.3,21,116.9,20.6,116.9,19.8 M106.8,28.5l-0.9,1.3c0.6,0.9,1.8,1.7,3.6,1.7c2,0,3.4-1.1,3.4-2.8
				c0-1.6-1.3-2.3-2.9-2.7c-1.1-0.3-1.9-0.5-1.9-1.2c0-0.5,0.5-0.9,1.4-0.9c0.9,0,1.9,0.5,2.4,1.1l0.9-1.3c-0.7-0.8-1.9-1.4-3.3-1.4
				c-1.9,0-3.3,1-3.3,2.6c0,1.7,1.3,2.3,3,2.7c1.2,0.3,1.8,0.6,1.8,1.3c0,0.6-0.6,1-1.6,1C108.2,29.9,107.2,29.2,106.8,28.5
				 M104.6,22.2c-0.9,0-1.9,0.6-2.3,1.5h-0.1l-0.1-1.3h-1.8v8.7h1.9v-4.9c0-1.5,0.9-2.3,2.1-2.3c0.3,0,0.6,0,0.7,0.1l0.1-1.8
				C105,22.3,104.8,22.2,104.6,22.2 M94.5,23.8c1.2,0,1.9,0.8,2,2h-4.2C92.5,24.6,93.4,23.8,94.5,23.8 M94.6,22.2
				c-2.5,0-4.2,1.9-4.2,4.6c0,2.8,1.8,4.6,4.3,4.6c1.8,0,3.2-1,3.6-2.3l-1.5-0.8c-0.4,1-1.2,1.5-2.1,1.5c-1.3,0-2.2-0.9-2.4-2.7h6.2
				v-0.5C98.5,24.2,97,22.2,94.6,22.2 M87.7,22.5l-2.3,6.8l-2.3-6.8H81l3.3,8.8h2l3.3-8.8H87.7z M79.6,22.5h-1.9v8.8h1.9V22.5z
				 M79.8,19.8c0-0.7-0.5-1.2-1.2-1.2c-0.7,0-1.2,0.5-1.2,1.2c0,0.7,0.5,1.2,1.2,1.2C79.3,21,79.8,20.6,79.8,19.8 M72.3,22.2
				c-1.2,0-2.1,0.6-2.6,1.4h-0.2l-0.1-1.1h-1.8v8.8h1.9v-4.5c0-1,0.2-1.6,0.5-2c0.4-0.5,1-0.8,1.7-0.8c1.1,0,1.7,0.6,1.7,2.1v5.2
				h1.9v-5.8C75.4,23,73.9,22.2,72.3,22.2 M58.2,26.5v-6.8h-2v6.8c0,3.2,1.5,5,4.6,5c3.1,0,4.6-1.8,4.6-5v-6.8h-2v6.8
				c0,2.1-0.7,3.2-2.6,3.2S58.2,28.7,58.2,26.5"/>
		</g>
		<path class="st1" d="M27.8,33.7L27.8,33.7L27.8,33.7z"/>
	</g>
</g>
</svg>
