<?xml version="1.0" encoding="utf-8"?>
<!-- Generator: Adobe Illustrator 26.5.0, SVG Export Plug-In . SVG Version: 6.00 Build 0)  -->
<svg version="1.1" id="Layer_1" xmlns="http://www.w3.org/2000/svg" xmlns:xlink="http://www.w3.org/1999/xlink" x="0px" y="0px"
	 viewBox="0 0 147 67.33" style="enable-background:new 0 0 147 67.33;" xml:space="preserve">
<style type="text/css">
	.st0{fill:#4359A5;}
	.st1{fill:#4560AA;}
</style>
<g>
	<path class="st0" d="M14.17,14.17c0,0,0,4.47,0,18.71c0,14.52,14.18,19.85,14.18,19.85s14.18-5.33,14.18-19.85
		c0-14.24,0-18.71,0-18.71H14.17z M36.43,21.56c0.37-0.62,1.06-1.19,1.82-1.06c0.21,0.04,0.42,0.14,0.57,0.29
		c-0.06-0.27-0.02-0.56,0.12-0.8c0-0.01,0.4-0.8,1.7-0.87c0.01,0,0.02,0,0.02,0.01c0.02,0.01,0.03,0.04,0.02,0.06l-2.76,4.79
		c-0.01,0.02-0.04,0.03-0.06,0.02c0,0,0,0,0,0c-0.34-0.22-0.45-0.68-0.24-1.03c0.06-0.11,0.15-0.2,0.25-0.26
		c-0.3-0.04-0.92-0.23-1.44-1.06C36.41,21.62,36.41,21.59,36.43,21.56z M37.45,24.79l-0.99,1.72c-2.45-1.42-5.25-2.17-8.1-2.17
		c-2.85,0-5.65,0.75-8.1,2.17l-0.99-1.72c2.75-1.59,5.9-2.44,9.1-2.44S34.7,23.2,37.45,24.79z M31.85,19.53l0.18-0.67
		c0.04-0.15,0.19-0.24,0.34-0.2l1.11,0.3l0.3-1.11c0.04-0.15,0.19-0.24,0.34-0.2l0.67,0.18c0.15,0.04,0.24,0.19,0.2,0.34l-0.3,1.11
		l1.11,0.3c0.15,0.04,0.24,0.19,0.2,0.34l-0.18,0.67c-0.04,0.15-0.19,0.24-0.34,0.2l-1.11-0.3L33.97,22
		c-0.04,0.15-0.19,0.24-0.34,0.2l-0.67-0.18c-0.15-0.04-0.24-0.19-0.2-0.34l0.4-1.51l-1.11-0.3C31.9,19.84,31.81,19.68,31.85,19.53z
		 M26.9,18.25c0.2-0.08,0.43-0.09,0.64-0.03l0,0l0,0c-0.19-0.21-0.3-0.48-0.3-0.76c0-0.03-0.05-0.91,1.07-1.62
		c0.02-0.01,0.05-0.01,0.08,0c1.13,0.71,1.07,1.62,1.07,1.63c0,0.28-0.11,0.55-0.3,0.76c0.21-0.05,0.44-0.04,0.64,0.03
		c0.72,0.27,1.03,1.1,1.04,1.82c0,0.03-0.01,0.05-0.04,0.07c-0.86,0.46-1.5,0.31-1.77,0.2c0.06,0.11,0.09,0.23,0.09,0.36
		c0,0.43-0.35,0.77-0.77,0.77c-0.43,0-0.77-0.35-0.77-0.77c0-0.12,0.03-0.24,0.09-0.35c-0.28,0.11-0.91,0.26-1.77-0.2
		c-0.02-0.01-0.04-0.04-0.04-0.07C25.87,19.35,26.18,18.51,26.9,18.25z M20.9,19.58l1.11-0.3l-0.3-1.11
		c-0.04-0.15,0.05-0.3,0.2-0.34l0.67-0.18c0.15-0.04,0.3,0.05,0.34,0.2l0.3,1.11l1.11-0.3c0.15-0.04,0.3,0.05,0.34,0.2l0.18,0.67
		c0.04,0.15-0.05,0.3-0.2,0.34l-1.11,0.3l0.4,1.51c0.04,0.15-0.05,0.3-0.2,0.34l-0.67,0.18c-0.15,0.04-0.3-0.05-0.34-0.2l-0.4-1.51
		l-1.11,0.3c-0.15,0.04-0.3-0.05-0.34-0.2l-0.18-0.67C20.67,19.78,20.75,19.62,20.9,19.58z M16.04,19.13c0.01,0,0.02-0.01,0.02-0.01
		c1.3,0.06,1.7,0.86,1.7,0.87c0.14,0.24,0.18,0.53,0.12,0.8c0.16-0.15,0.36-0.26,0.57-0.29c0.75-0.13,1.44,0.44,1.82,1.06
		c0.02,0.02,0.02,0.05,0,0.08c-0.52,0.83-1.14,1.02-1.44,1.06c0.11,0.07,0.19,0.16,0.25,0.26c0.21,0.36,0.1,0.81-0.24,1.03
		c0,0,0,0,0,0c-0.02,0.01-0.05,0.01-0.06-0.02l-2.76-4.79C16.01,19.17,16.02,19.14,16.04,19.13z M37.14,45.51
		c-0.65,0.76-1.36,1.48-2.14,2.17c-2.88,2.57-5.8,3.92-6.66,4.28c-0.85-0.36-3.74-1.69-6.62-4.25c-0.79-0.7-1.51-1.44-2.17-2.21
		l8.79-6.75L14.88,28.41v0h26.94L28.35,38.75L37.14,45.51z"/>
	<path class="st0" d="M128.58,35.47c1.21,0,1.93,0.79,2.03,1.96h-4.25C126.6,36.19,127.44,35.47,128.58,35.47 M128.65,33.86
		c-2.54,0-4.25,1.89-4.25,4.6c0,2.85,1.82,4.6,4.28,4.6c1.78,0,3.24-1.05,3.62-2.32l-1.51-0.83c-0.38,1.05-1.17,1.5-2.12,1.5
		c-1.3,0-2.25-0.94-2.38-2.65h6.23v-0.52C132.56,35.79,131.13,33.86,128.65,33.86 M119.25,35.47c1.21,0,1.93,0.79,2.03,1.96h-4.25
		C117.27,36.19,118.12,35.47,119.25,35.47 M119.33,33.86c-2.54,0-4.25,1.89-4.25,4.6c0,2.85,1.82,4.6,4.28,4.6
		c1.78,0,3.24-1.05,3.62-2.32l-1.51-0.83c-0.38,1.05-1.17,1.5-2.12,1.5c-1.3,0-2.25-0.94-2.38-2.65h6.23v-0.52
		C123.23,35.79,121.81,33.86,119.33,33.86 M109.19,41.38c-1.42,0-2.34-1.03-2.34-2.92s0.92-2.92,2.32-2.92
		c1.33,0,2.32,0.81,2.47,2.47v0.86C111.49,40.57,110.52,41.38,109.19,41.38 M111.64,30.78v4.34h-0.13
		c-0.49-0.74-1.35-1.26-2.65-1.26c-2.12,0-3.92,1.73-3.92,4.6c0,2.85,1.8,4.6,3.94,4.6c1.31,0,2.16-0.54,2.65-1.28h0.11v1.1h1.89
		V30.53L111.64,30.78z M100.33,33.86c-1.19,0-2.14,0.61-2.61,1.35h-0.16l-0.07-1.1h-1.75v8.76h1.89v-4.54c0-0.97,0.2-1.6,0.54-2
		c0.41-0.49,1.04-0.76,1.71-0.76c1.1,0,1.67,0.58,1.67,2.13v5.17h1.89v-5.82C103.45,34.66,101.99,33.86,100.33,33.86 M91.78,34.12
		v4.54c0,0.97-0.2,1.6-0.54,2c-0.41,0.49-1.04,0.76-1.71,0.76c-1.1,0-1.67-0.58-1.67-2.13v-5.17h-1.89v5.82
		c0,2.4,1.46,3.19,3.11,3.19c1.19,0,2.14-0.61,2.61-1.35h0.16l0.07,1.1h1.75v-8.76H91.78z M76.55,33.09h1.57
		c3.13,0,4.23,1.37,4.23,4c0,2.67-1.12,4.07-4.23,4.07h-1.57V33.09z M78.14,31.39h-3.58v11.48h3.58c4.27,0,6.21-2.23,6.21-5.78
		C84.35,33.57,82.4,31.39,78.14,31.39 M69.4,32.73c0.37,0,0.77,0.07,1.05,0.15v-1.63c-0.32-0.09-0.71-0.12-1.22-0.12
		c-1.45,0-3.09,0.68-3.09,3.15v0.32h-1.33v1.45h1.33v6.82h1.77v-6.82h2.21V34.6H67.9v-0.15C67.9,33.27,68.43,32.73,69.4,32.73
		 M62.14,38.7c0,1.75-0.83,2.77-2.26,2.77c-1.39,0-2.26-1.02-2.26-2.77c0-1.75,0.87-2.77,2.26-2.77
		C61.3,35.93,62.14,36.95,62.14,38.7 M63.94,38.7c0-2.66-1.65-4.34-4.06-4.34c-2.4,0-4.06,1.68-4.06,4.34
		c0,2.66,1.67,4.34,4.06,4.34C62.29,43.04,63.94,41.36,63.94,38.7"/>
	<path class="st0" d="M132.65,16.9h-1.98l-2.29,6.76l-2.27-6.76h-2.16l3.35,8.8l-1.19,3.26h1.96l3.91-10.29l-0.02,0.02L132.65,16.9z
		 M121.07,22.27v-3.84h2.14V16.9h-2.16v-2.43l-1.87,0.23v2.2h-1.13v1.53h1.13v4.02c0,2.59,1.69,3.33,3.2,3.33
		c0.54,0,0.92-0.05,1.26-0.14v-1.73c-0.29,0.09-0.7,0.16-1.08,0.16C121.59,24.07,121.07,23.49,121.07,22.27 M116.5,16.9h-1.89v8.76
		h1.89V16.9z M116.77,14.26c0-0.72-0.54-1.23-1.21-1.23c-0.68,0-1.22,0.5-1.22,1.23c0,0.7,0.54,1.19,1.22,1.19
		C116.23,15.45,116.77,14.97,116.77,14.26 M106.69,22.88l-0.95,1.26c0.63,0.9,1.78,1.69,3.55,1.69c2.03,0,3.42-1.1,3.42-2.79
		c0-1.64-1.35-2.27-2.9-2.69c-1.06-0.27-1.91-0.52-1.91-1.24c0-0.5,0.47-0.9,1.37-0.9c0.95,0,1.91,0.54,2.38,1.12l0.94-1.33
		c-0.74-0.81-1.89-1.37-3.28-1.37c-1.94,0-3.28,1.01-3.28,2.61c0,1.66,1.35,2.27,3.01,2.69c1.19,0.31,1.82,0.63,1.82,1.32
		c0,0.65-0.59,1.03-1.55,1.03C108.09,24.27,107.12,23.58,106.69,22.88 M104.49,16.66c-0.95,0-1.89,0.61-2.32,1.55h-0.13l-0.09-1.3
		h-1.76v8.74h1.91v-4.88c0-1.51,0.94-2.31,2.12-2.31c0.34,0,0.56,0.04,0.7,0.11l0.14-1.84C104.93,16.68,104.75,16.66,104.49,16.66
		 M94.39,18.25c1.21,0,1.93,0.79,2.03,1.96h-4.25C92.41,18.97,93.26,18.25,94.39,18.25 M94.47,16.64c-2.54,0-4.25,1.89-4.25,4.6
		c0,2.85,1.82,4.6,4.28,4.6c1.78,0,3.24-1.05,3.62-2.32l-1.51-0.83c-0.38,1.05-1.17,1.5-2.12,1.5c-1.3,0-2.25-0.94-2.38-2.65h6.23
		V21C98.37,18.57,96.95,16.64,94.47,16.64 M87.63,16.9l-2.29,6.76l-2.27-6.76h-2.16l3.33,8.76h2.03l3.33-8.76H87.63z M79.47,16.9
		h-1.89v8.76h1.89V16.9z M79.74,14.26c0-0.72-0.54-1.23-1.21-1.23c-0.68,0-1.22,0.5-1.22,1.23c0,0.7,0.54,1.19,1.22,1.19
		C79.2,15.45,79.74,14.97,79.74,14.26 M72.18,16.64c-1.19,0-2.14,0.61-2.61,1.35h-0.16l-0.07-1.1h-1.75v8.76h1.89v-4.54
		c0-0.97,0.2-1.6,0.54-2c0.41-0.49,1.04-0.76,1.71-0.76c1.1,0,1.67,0.58,1.67,2.13v5.17h1.89v-5.82
		C75.3,17.44,73.84,16.64,72.18,16.64 M58.09,20.95v-6.78h-2V21c0,3.15,1.48,4.99,4.61,4.99c3.1-0.02,4.63-1.8,4.63-4.99v-6.83h-2
		v6.78c0,2.14-0.7,3.24-2.63,3.24C58.77,24.19,58.09,23.09,58.09,20.95"/>
	<polygon class="st1" points="27.66,20.33 27.66,20.33 27.66,20.33 	"/>
</g>
</svg>
